<mxfile host="app.diagrams.net" modified="2023-04-20T08:50:24.379Z" agent="Mozilla/5.0 (Macintosh; Intel Mac OS X 10_15_7) AppleWebKit/537.36 (KHTML, like Gecko) Chrome/112.0.0.0 Safari/537.36" etag="k5H3Gda3V7ki7bcyRxnQ" version="21.2.1" type="github">
  <diagram name="Page-1" id="822b0af5-4adb-64df-f703-e8dfc1f81529">
    <mxGraphModel dx="1106" dy="747" grid="1" gridSize="10" guides="1" tooltips="1" connect="1" arrows="1" fold="1" page="1" pageScale="1" pageWidth="1100" pageHeight="850" background="none" math="0" shadow="0">
      <root>
        <mxCell id="0" />
        <mxCell id="1" parent="0" />
        <mxCell id="7d933b09d9755ecc-5" value="TOUDA网关" style="verticalLabelPosition=bottom;aspect=fixed;html=1;verticalAlign=top;strokeColor=none;shape=mxgraph.citrix.file_server;rounded=0;shadow=0;comic=0;fontFamily=Verdana;" parent="1" vertex="1">
          <mxGeometry x="600" y="363" width="71" height="97" as="geometry" />
        </mxCell>
        <mxCell id="flJZxsW0R2KYNrVLg4lC-15" value="" style="edgeStyle=orthogonalEdgeStyle;rounded=0;orthogonalLoop=1;jettySize=auto;html=1;entryX=0.554;entryY=0.024;entryDx=0;entryDy=0;entryPerimeter=0;" edge="1" parent="1" source="7d933b09d9755ecc-9" target="7d933b09d9755ecc-34">
          <mxGeometry relative="1" as="geometry">
            <mxPoint x="280" y="283" as="targetPoint" />
          </mxGeometry>
        </mxCell>
        <mxCell id="flJZxsW0R2KYNrVLg4lC-16" value="" style="edgeStyle=orthogonalEdgeStyle;rounded=0;orthogonalLoop=1;jettySize=auto;html=1;" edge="1" parent="1" source="7d933b09d9755ecc-9" target="flJZxsW0R2KYNrVLg4lC-5">
          <mxGeometry relative="1" as="geometry" />
        </mxCell>
        <mxCell id="flJZxsW0R2KYNrVLg4lC-28" value="" style="edgeStyle=orthogonalEdgeStyle;rounded=0;orthogonalLoop=1;jettySize=auto;html=1;entryX=0.615;entryY=0.029;entryDx=0;entryDy=0;entryPerimeter=0;" edge="1" parent="1" source="7d933b09d9755ecc-9" target="flJZxsW0R2KYNrVLg4lC-26">
          <mxGeometry relative="1" as="geometry">
            <mxPoint x="142.5" y="312" as="targetPoint" />
          </mxGeometry>
        </mxCell>
        <mxCell id="7d933b09d9755ecc-9" value="卡中心touda业务系统" style="verticalLabelPosition=bottom;aspect=fixed;html=1;verticalAlign=top;strokeColor=none;shape=mxgraph.citrix.tower_server;rounded=0;shadow=0;comic=0;fontFamily=Verdana;" parent="1" vertex="1">
          <mxGeometry x="110" y="147" width="65" height="85" as="geometry" />
        </mxCell>
        <mxCell id="flJZxsW0R2KYNrVLg4lC-17" value="" style="edgeStyle=orthogonalEdgeStyle;rounded=0;orthogonalLoop=1;jettySize=auto;html=1;entryX=1.015;entryY=0.606;entryDx=0;entryDy=0;entryPerimeter=0;exitX=0.446;exitY=0.941;exitDx=0;exitDy=0;exitPerimeter=0;" edge="1" parent="1" source="7d933b09d9755ecc-34" target="flJZxsW0R2KYNrVLg4lC-26">
          <mxGeometry relative="1" as="geometry">
            <Array as="points">
              <mxPoint x="350" y="321" />
              <mxPoint x="350" y="452" />
            </Array>
          </mxGeometry>
        </mxCell>
        <mxCell id="flJZxsW0R2KYNrVLg4lC-33" value="流处理" style="edgeLabel;html=1;align=center;verticalAlign=middle;resizable=0;points=[];" vertex="1" connectable="0" parent="flJZxsW0R2KYNrVLg4lC-17">
          <mxGeometry x="0.5458" y="-3" relative="1" as="geometry">
            <mxPoint as="offset" />
          </mxGeometry>
        </mxCell>
        <mxCell id="flJZxsW0R2KYNrVLg4lC-29" value="" style="edgeStyle=orthogonalEdgeStyle;rounded=0;orthogonalLoop=1;jettySize=auto;html=1;" edge="1" parent="1" source="7d933b09d9755ecc-34" target="flJZxsW0R2KYNrVLg4lC-2">
          <mxGeometry relative="1" as="geometry" />
        </mxCell>
        <mxCell id="7d933b09d9755ecc-34" value="外数Server" style="verticalLabelPosition=bottom;aspect=fixed;html=1;verticalAlign=top;strokeColor=none;shape=mxgraph.citrix.tower_server;rounded=0;shadow=0;comic=0;fontFamily=Verdana;" parent="1" vertex="1">
          <mxGeometry x="423" y="240.5" width="65" height="85" as="geometry" />
        </mxCell>
        <mxCell id="flJZxsW0R2KYNrVLg4lC-1" value="EGSP&lt;br&gt;SofaMQ" style="shape=cylinder3;whiteSpace=wrap;html=1;boundedLbl=1;backgroundOutline=1;size=15;" vertex="1" parent="1">
          <mxGeometry x="610" y="176" width="100" height="70" as="geometry" />
        </mxCell>
        <mxCell id="flJZxsW0R2KYNrVLg4lC-20" value="" style="edgeStyle=orthogonalEdgeStyle;rounded=0;orthogonalLoop=1;jettySize=auto;html=1;entryX=1;entryY=0.518;entryDx=0;entryDy=0;entryPerimeter=0;" edge="1" parent="1" source="flJZxsW0R2KYNrVLg4lC-2" target="7d933b09d9755ecc-34">
          <mxGeometry relative="1" as="geometry">
            <mxPoint x="530" y="270" as="targetPoint" />
            <Array as="points">
              <mxPoint x="540" y="426" />
              <mxPoint x="540" y="285" />
            </Array>
          </mxGeometry>
        </mxCell>
        <mxCell id="flJZxsW0R2KYNrVLg4lC-2" value="redis" style="shape=cylinder3;whiteSpace=wrap;html=1;boundedLbl=1;backgroundOutline=1;size=15;" vertex="1" parent="1">
          <mxGeometry x="405.5" y="391" width="100" height="70" as="geometry" />
        </mxCell>
        <mxCell id="flJZxsW0R2KYNrVLg4lC-18" value="" style="edgeStyle=orthogonalEdgeStyle;rounded=0;orthogonalLoop=1;jettySize=auto;html=1;exitX=0.5;exitY=1;exitDx=0;exitDy=0;exitPerimeter=0;" edge="1" parent="1" source="flJZxsW0R2KYNrVLg4lC-3" target="flJZxsW0R2KYNrVLg4lC-4">
          <mxGeometry relative="1" as="geometry" />
        </mxCell>
        <mxCell id="flJZxsW0R2KYNrVLg4lC-19" value="" style="edgeStyle=orthogonalEdgeStyle;rounded=0;orthogonalLoop=1;jettySize=auto;html=1;exitX=0.5;exitY=1;exitDx=0;exitDy=0;exitPerimeter=0;entryX=0.5;entryY=0;entryDx=0;entryDy=0;entryPerimeter=0;" edge="1" parent="1" source="flJZxsW0R2KYNrVLg4lC-2" target="flJZxsW0R2KYNrVLg4lC-3">
          <mxGeometry relative="1" as="geometry">
            <mxPoint x="530" y="490" as="targetPoint" />
          </mxGeometry>
        </mxCell>
        <mxCell id="flJZxsW0R2KYNrVLg4lC-22" value="" style="edgeStyle=orthogonalEdgeStyle;rounded=0;orthogonalLoop=1;jettySize=auto;html=1;" edge="1" parent="1" source="flJZxsW0R2KYNrVLg4lC-3">
          <mxGeometry relative="1" as="geometry">
            <mxPoint x="540" y="430" as="targetPoint" />
          </mxGeometry>
        </mxCell>
        <mxCell id="flJZxsW0R2KYNrVLg4lC-3" value="Mysql" style="shape=cylinder3;whiteSpace=wrap;html=1;boundedLbl=1;backgroundOutline=1;size=15;" vertex="1" parent="1">
          <mxGeometry x="405.5" y="491" width="100" height="70" as="geometry" />
        </mxCell>
        <mxCell id="flJZxsW0R2KYNrVLg4lC-25" value="" style="edgeStyle=orthogonalEdgeStyle;rounded=0;orthogonalLoop=1;jettySize=auto;html=1;" edge="1" parent="1" source="flJZxsW0R2KYNrVLg4lC-4">
          <mxGeometry relative="1" as="geometry">
            <mxPoint x="540" y="530" as="targetPoint" />
          </mxGeometry>
        </mxCell>
        <mxCell id="flJZxsW0R2KYNrVLg4lC-4" value="ES" style="shape=cylinder3;whiteSpace=wrap;html=1;boundedLbl=1;backgroundOutline=1;size=15;" vertex="1" parent="1">
          <mxGeometry x="405.5" y="591" width="100" height="70" as="geometry" />
        </mxCell>
        <mxCell id="flJZxsW0R2KYNrVLg4lC-13" value="" style="edgeStyle=orthogonalEdgeStyle;rounded=0;orthogonalLoop=1;jettySize=auto;html=1;entryX=0.015;entryY=0.565;entryDx=0;entryDy=0;entryPerimeter=0;" edge="1" parent="1" source="flJZxsW0R2KYNrVLg4lC-5" target="7d933b09d9755ecc-34">
          <mxGeometry relative="1" as="geometry">
            <mxPoint x="425" y="410" as="targetPoint" />
          </mxGeometry>
        </mxCell>
        <mxCell id="flJZxsW0R2KYNrVLg4lC-5" value="graphQL前置变量Server" style="verticalLabelPosition=bottom;aspect=fixed;html=1;verticalAlign=top;strokeColor=none;shape=mxgraph.citrix.tower_server;rounded=0;shadow=0;comic=0;fontFamily=Verdana;" vertex="1" parent="1">
          <mxGeometry x="230" y="246" width="65" height="85" as="geometry" />
        </mxCell>
        <mxCell id="flJZxsW0R2KYNrVLg4lC-6" value="总行外数服务" style="verticalLabelPosition=bottom;aspect=fixed;html=1;verticalAlign=top;strokeColor=none;shape=mxgraph.citrix.tower_server;rounded=0;shadow=0;comic=0;fontFamily=Verdana;" vertex="1" parent="1">
          <mxGeometry x="765" y="177" width="65" height="85" as="geometry" />
        </mxCell>
        <mxCell id="flJZxsW0R2KYNrVLg4lC-7" value="第三方数据服务" style="verticalLabelPosition=bottom;aspect=fixed;html=1;verticalAlign=top;strokeColor=none;shape=mxgraph.citrix.tower_server;rounded=0;shadow=0;comic=0;fontFamily=Verdana;" vertex="1" parent="1">
          <mxGeometry x="810" y="363" width="65" height="85" as="geometry" />
        </mxCell>
        <mxCell id="flJZxsW0R2KYNrVLg4lC-11" value="squid" style="shape=cylinder3;whiteSpace=wrap;html=1;boundedLbl=1;backgroundOutline=1;size=15;" vertex="1" parent="1">
          <mxGeometry x="680" y="391" width="79" height="49" as="geometry" />
        </mxCell>
        <mxCell id="flJZxsW0R2KYNrVLg4lC-26" value="衍生变量Server" style="verticalLabelPosition=bottom;aspect=fixed;html=1;verticalAlign=top;strokeColor=none;shape=mxgraph.citrix.tower_server;rounded=0;shadow=0;comic=0;fontFamily=Verdana;" vertex="1" parent="1">
          <mxGeometry x="103" y="400" width="65" height="85" as="geometry" />
        </mxCell>
        <mxCell id="flJZxsW0R2KYNrVLg4lC-30" value="" style="edgeStyle=orthogonalEdgeStyle;rounded=0;orthogonalLoop=1;jettySize=auto;html=1;entryX=0.538;entryY=1.006;entryDx=0;entryDy=0;entryPerimeter=0;exitX=0;exitY=0.5;exitDx=0;exitDy=0;exitPerimeter=0;" edge="1" parent="1" source="flJZxsW0R2KYNrVLg4lC-3" target="flJZxsW0R2KYNrVLg4lC-26">
          <mxGeometry relative="1" as="geometry">
            <mxPoint x="330" y="530" as="sourcePoint" />
            <mxPoint x="140" y="490" as="targetPoint" />
          </mxGeometry>
        </mxCell>
        <mxCell id="flJZxsW0R2KYNrVLg4lC-32" value="批处理" style="edgeLabel;html=1;align=center;verticalAlign=middle;resizable=0;points=[];" vertex="1" connectable="0" parent="flJZxsW0R2KYNrVLg4lC-30">
          <mxGeometry x="0.0422" y="5" relative="1" as="geometry">
            <mxPoint as="offset" />
          </mxGeometry>
        </mxCell>
        <mxCell id="flJZxsW0R2KYNrVLg4lC-31" value="" style="edgeStyle=orthogonalEdgeStyle;rounded=0;orthogonalLoop=1;jettySize=auto;html=1;exitX=0;exitY=0.5;exitDx=0;exitDy=0;exitPerimeter=0;" edge="1" parent="1" source="flJZxsW0R2KYNrVLg4lC-4">
          <mxGeometry relative="1" as="geometry">
            <mxPoint x="396.5" y="610" as="sourcePoint" />
            <mxPoint x="280" y="530" as="targetPoint" />
          </mxGeometry>
        </mxCell>
      </root>
    </mxGraphModel>
  </diagram>
</mxfile>
